static_grf.mot
version=1
nRows=22
nColumns 19
inDegrees=yes
endheader
time	1_ground_force_vx	1_ground_force_vy	1_ground_force_vz	1_ground_force_px	1_ground_force_py	1_ground_force_pz	1_ground_torque_x	1_ground_torque_y	1_ground_torque_z	2_ground_force_vx	2_ground_force_vy	2_ground_force_vz	2_ground_force_px	2_ground_force_py	2_ground_force_pz	2_ground_torque_x	2_ground_torque_y	2_ground_torque_z
            1.501500	            1.128699	          245.813238	          -24.812259	           -0.248953	            0.006162	           -0.391803	            0.005515	            1.201006	           -0.121229	           -2.465303	          231.924396	           27.906107	           -0.229391	            0.005732	           -0.719163	            0.009131	           -0.859034	           -0.103363
            1.502000	            1.036869	          244.732216	          -24.954237	           -0.248725	            0.006164	           -0.392280	            0.005100	            1.203697	           -0.122736	           -2.510844	          231.556112	           27.857885	           -0.229460	            0.005730	           -0.718574	            0.009473	           -0.873590	           -0.105099
            1.502500	            0.991124	          244.191410	          -24.956442	           -0.249094	            0.006166	           -0.392739	            0.004713	            1.161228	           -0.118678	           -2.466570	          232.292205	           28.048206	           -0.230011	            0.005730	           -0.719261	            0.009800	           -0.922893	           -0.111435
            1.503000	            1.036884	          245.272816	          -24.906062	           -0.248698	            0.006164	           -0.392200	            0.005043	            1.192947	           -0.121137	           -2.467920	          232.660654	           28.002592	           -0.229649	            0.005732	           -0.719283	            0.008985	           -0.847071	           -0.101952
            1.503500	            0.899061	          245.633714	          -24.995887	           -0.248929	            0.006163	           -0.391940	            0.004357	            1.190485	           -0.121145	           -2.423064	          233.213276	           28.004543	           -0.229621	            0.005734	           -0.719956	            0.009547	           -0.918860	           -0.110338
            1.504000	            0.991790	          244.911096	          -24.632359	           -0.249053	            0.006165	           -0.392431	            0.004714	            1.164063	           -0.117078	           -2.793293	          231.923546	           27.812391	           -0.229496	            0.005731	           -0.719078	            0.009816	           -0.814978	           -0.097733
            1.504500	            1.081897	          245.454467	          -25.226394	           -0.248812	            0.006164	           -0.392229	            0.005402	            1.225684	           -0.125969	           -2.563634	          233.212936	           27.957675	           -0.229498	            0.005732	           -0.719312	            0.009255	           -0.841882	           -0.100925
            1.505000	            0.578697	          245.812935	          -24.765038	           -0.248778	            0.006163	           -0.391960	            0.002638	            1.120587	           -0.112896	           -2.376255	          233.213780	           27.910667	           -0.229887	            0.005732	           -0.719555	            0.008909	           -0.874327	           -0.104638
            1.505500	            0.990633	          245.633929	          -25.041970	           -0.248974	            0.006163	           -0.392022	            0.004934	            1.223531	           -0.124737	           -2.421776	          232.845299	           27.909373	           -0.229538	            0.005734	           -0.719776	            0.009533	           -0.916574	           -0.109863
            1.506000	            1.128360	          244.552361	          -25.046949	           -0.249246	            0.006167	           -0.392855	            0.005684	            1.231961	           -0.126177	           -2.607182	          232.292200	           27.907481	           -0.229715	            0.005732	           -0.719584	            0.009780	           -0.871349	           -0.104684
            1.506500	            0.853560	          245.633116	          -24.858205	           -0.249101	            0.006162	           -0.391687	            0.004058	            1.167823	           -0.118184	           -2.562970	          233.028795	           27.957018	           -0.230120	            0.005731	           -0.719703	            0.009764	           -0.887754	           -0.106506
            1.507000	            0.991122	          245.452876	          -24.859319	           -0.248770	            0.006161	           -0.391632	            0.004831	            1.196470	           -0.121178	           -2.562970	          233.028795	           27.957018	           -0.229528	            0.005734	           -0.719863	            0.010318	           -0.938142	           -0.112551
            1.507500	            1.128324	          245.994093	          -24.949054	           -0.248561	            0.006163	           -0.391880	            0.005472	            1.193034	           -0.120999	           -2.330091	          233.398257	           27.864376	           -0.229358	            0.005735	           -0.719965	            0.009684	           -0.970044	           -0.115809
            1.508000	            1.220420	          244.371523	          -24.910382	           -0.249007	            0.006167	           -0.392854	            0.006220	            1.245470	           -0.126959	           -2.655943	          232.843783	           28.097185	           -0.229656	            0.005732	           -0.719533	            0.009530	           -0.835484	           -0.100818
            1.508500	            0.854048	          245.452064	          -24.675554	           -0.248883	            0.006164	           -0.392139	            0.004100	            1.178215	           -0.118447	           -2.702355	          232.661315	           27.580338	           -0.229499	            0.005732	           -0.719119	            0.009710	           -0.835974	           -0.099099
            1.509000	            0.854096	          245.812398	          -24.628153	           -0.248925	            0.006162	           -0.391700	            0.004190	            1.205943	           -0.120824	           -2.512132	          231.924059	           27.953055	           -0.229865	            0.005731	           -0.719242	            0.009590	           -0.885403	           -0.106715
            1.509500	            1.037015	          244.551754	          -24.909154	           -0.248898	            0.006165	           -0.392450	            0.005043	            1.189159	           -0.121123	           -2.420303	          232.475846	           28.236555	           -0.229368	            0.005733	           -0.719273	            0.009476	           -0.910230	           -0.110557
            1.510000	            1.265934	          246.174189	          -24.902766	           -0.248448	            0.006162	           -0.391769	            0.006165	            1.198845	           -0.121274	           -2.654593	          232.475335	           28.142799	           -0.229476	            0.005733	           -0.719593	            0.009808	           -0.858918	           -0.103978
            1.510500	            1.128342	          245.273227	          -24.998001	           -0.249206	            0.006165	           -0.392518	            0.005615	            1.220545	           -0.124397	           -2.704225	          233.212763	           27.863878	           -0.229179	            0.005735	           -0.719873	            0.009710	           -0.837391	           -0.100050
            1.511000	            0.945000	          246.354393	          -24.901197	           -0.249043	            0.006162	           -0.391827	            0.004454	            1.161214	           -0.117374	           -2.471887	          233.765392	           28.053462	           -0.229723	            0.005735	           -0.720385	            0.009396	           -0.888550	           -0.106632
            1.511500	            1.265904	          245.092988	          -24.999116	           -0.248981	            0.006164	           -0.392158	            0.006083	            1.177640	           -0.120117	           -2.798487	          233.395729	           28.099216	           -0.229563	            0.005735	           -0.720282	            0.010492	           -0.875068	           -0.105352
            1.512000	            0.807978	          245.452448	          -24.767152	           -0.249129	            0.006162	           -0.391773	            0.003791	            1.151662	           -0.116207	           -2.561723	          232.661153	           27.767991	           -0.229385	            0.005735	           -0.719845	            0.009876	           -0.896974	           -0.107053
